<svg width="110" height="110" viewBox="0 0 110 110" fill="none" xmlns="http://www.w3.org/2000/svg">
<rect x="22.9167" y="9.16666" width="64.1667" height="27.5" rx="2.5" fill="#BBE2FE"/>
<path d="M95.0962 16.0417H14.9038C13.0828 16.0417 11.6818 17.6507 11.9323 19.4544L17.1875 57.2917H92.8125L98.0677 19.4544C98.3182 17.6507 96.9171 16.0417 95.0962 16.0417Z" fill="url(#paint0_linear_9_2)"/>
<path d="M95.0962 16.0417H14.9038C13.0828 16.0417 11.6818 17.6507 11.9323 19.4544L17.1875 57.2917H92.8125L98.0677 19.4544C98.3182 17.6507 96.9171 16.0417 95.0962 16.0417Z" fill="url(#paint1_linear_9_2)"/>
<path d="M98.0363 92.8135L92.8125 57.2917H17.1875L11.9637 92.8135C11.6973 94.6247 13.1012 96.25 14.9318 96.25H95.0682C96.8988 96.25 98.3026 94.6246 98.0363 92.8135Z" fill="url(#paint2_linear_9_2)"/>
<path d="M44.964 76.5617C42.8923 76.5617 41.0957 76.2133 39.574 75.5167C38.0523 74.82 36.7415 73.8483 35.6415 72.6017C34.5415 71.3367 33.7257 70.0442 33.194 68.7242C32.6623 67.4042 32.3965 66.7442 32.3965 66.7442L36.4665 64.9842C36.4665 64.9842 36.6773 65.4792 37.099 66.4692C37.5207 67.4592 38.0982 68.4308 38.8315 69.3842C39.5648 70.3192 40.4265 71.0433 41.4165 71.5567C42.4065 72.0517 43.6348 72.2992 45.1015 72.2992C47.5215 72.2992 49.4465 71.575 50.8765 70.1267C52.3065 68.6783 53.0215 66.8725 53.0215 64.7092C53.0215 62.3258 52.2332 60.4925 50.6565 59.2092C49.0982 57.9075 47.0815 57.2567 44.6065 57.2567H41.059V53.0767H44.249C46.4857 53.0767 48.2823 52.4533 49.639 51.2067C51.014 49.96 51.7015 48.3558 51.7015 46.3942C51.7015 44.4508 51.0873 42.8833 49.859 41.6917C48.6307 40.4817 46.9348 39.8767 44.7715 39.8767C43.6532 39.8767 42.6632 40.0692 41.8015 40.4542C40.9398 40.8208 40.1882 41.3525 39.5465 42.0492C38.9232 42.7458 38.3823 43.525 37.924 44.3867C37.4657 45.2483 37.2365 45.6792 37.2365 45.6792L33.2215 43.8917C33.2215 43.8917 33.5057 43.3233 34.074 42.1867C34.6607 41.0317 35.4673 39.9317 36.494 38.8867C37.539 37.8417 38.749 37.0442 40.124 36.4942C41.499 35.9258 43.094 35.6417 44.909 35.6417C48.3923 35.6417 51.1332 36.595 53.1315 38.5017C55.1482 40.39 56.1565 42.8742 56.1565 45.9542C56.1565 48.1358 55.6523 50.0058 54.644 51.5642C53.6357 53.1225 52.224 54.2133 50.409 54.8367V54.9742C52.609 55.6892 54.3415 56.9175 55.6065 58.6592C56.8715 60.4008 57.504 62.4725 57.504 64.8742C57.504 68.2658 56.3215 71.0617 53.9565 73.2617C51.5915 75.4617 48.594 76.5617 44.964 76.5617ZM70.2322 75.7917V42.5717L62.9172 47.8517L60.6347 44.3867L71.7997 36.3842H74.6597V75.7917H70.2322Z" fill="white"/>
<defs>
<linearGradient id="paint0_linear_9_2" x1="55" y1="16.0417" x2="55" y2="57.2917" gradientUnits="userSpaceOnUse">
<stop stop-color="#A5A7FE"/>
<stop offset="0.504808" stop-color="#3F92FF"/>
<stop offset="1" stop-color="#3B90FB"/>
</linearGradient>
<linearGradient id="paint1_linear_9_2" x1="100.558" y1="36.3588" x2="9.44153" y2="36.3588" gradientUnits="userSpaceOnUse">
<stop stop-color="#4091FE"/>
<stop offset="0.194152" stop-color="#4091FE" stop-opacity="0"/>
<stop offset="0.81" stop-color="#4091FE" stop-opacity="0"/>
<stop offset="1" stop-color="#4091FE"/>
</linearGradient>
<linearGradient id="paint2_linear_9_2" x1="55" y1="57.2917" x2="55" y2="96.25" gradientUnits="userSpaceOnUse">
<stop stop-color="#489CFD"/>
<stop offset="1" stop-color="#308BFE"/>
</linearGradient>
</defs>
</svg>